<?xml version="1.0" standalone="no"?>
<!DOCTYPE svg PUBLIC "-//W3C//DTD SVG 20010904//EN"
 "http://www.w3.org/TR/2001/REC-SVG-20010904/DTD/svg10.dtd">
<svg version="1.0" xmlns="http://www.w3.org/2000/svg"
 width="256.000000pt" height="256.000000pt" viewBox="0 0 256.000000 256.000000"
 preserveAspectRatio="xMidYMid meet">

<g transform="translate(0.000000,256.000000) scale(0.100000,-0.100000)"
fill="#000000" stroke="none">
<path d="M1585 2286 c-159 -50 -286 -200 -336 -394 -12 -48 -14 -52 -26 -35
-32 44 -132 138 -180 169 -203 131 -427 102 -516 -66 -27 -51 -29 -61 -25
-145 3 -79 8 -99 41 -167 42 -88 141 -196 220 -242 44 -26 54 -46 23 -46 -8 0
-51 -19 -96 -41 -256 -128 -365 -403 -225 -566 73 -85 223 -124 357 -93 76 18
185 70 245 118 29 23 54 42 56 42 2 0 7 -33 11 -74 18 -196 118 -366 254 -433
143 -70 308 -5 380 150 52 112 55 271 8 410 -14 42 -26 79 -26 81 0 2 21 -3
48 -11 120 -37 311 -24 413 28 201 102 238 324 79 479 -92 89 -262 147 -410
138 l-69 -4 20 31 c66 99 119 253 119 350 0 60 -24 147 -53 198 -65 110 -193
161 -312 123z m-274 -605 c52 -139 65 -316 27 -355 -58 -58 -307 -46 -456 22
-24 11 -40 22 -35 25 5 4 50 11 100 18 110 14 225 1 316 -36 33 -13 62 -23 63
-22 2 1 -13 34 -31 72 -41 83 -65 196 -65 299 0 105 7 118 37 70 13 -22 32
-64 44 -93z m434 -162 c-63 -64 -177 -141 -250 -168 -73 -28 -135 -37 -135
-22 0 20 95 107 161 147 67 40 208 94 249 94 22 0 21 -4 -25 -51z m-285 -252
c30 -17 85 -60 121 -96 68 -68 147 -177 136 -187 -10 -11 -109 43 -181 96 -70
53 -134 127 -168 193 l-20 40 29 -7 c15 -4 53 -22 83 -39z m-116 24 c10 -16
-15 -136 -43 -202 -29 -69 -80 -151 -132 -209 l-30 -35 6 65 c12 120 66 249
147 353 30 37 42 44 52 28z"/>
</g>
</svg>
